<svg width="51" height="51" viewBox="0 0 51 51" fill="none" xmlns="http://www.w3.org/2000/svg">
<g id="flower 1" clip-path="url(#clip0_12_354)">
<g id="Group">
<path id="Vector" d="M38.2494 15.9393V7.97101C38.2494 7.09091 37.5359 6.37735 36.6557 6.37735H35.0621V1.59635C35.0621 0.716248 34.3486 0.00268395 33.4684 0.00268395C31.2122 0.00268395 27.7569 -0.170229 23.7008 2.25971C21.1794 1.5092 19.3962 1.59635 17.5317 1.59635C16.6515 1.59635 15.9381 2.30991 15.9381 3.19002V6.37735H14.3444C13.4642 6.37735 12.7507 7.09091 12.7507 7.97101V15.9393C12.7507 22.4297 17.6259 27.8026 23.9064 28.5893V49.4063C23.9064 50.2864 24.6199 51 25.5001 51C26.3803 51 27.0937 50.2864 27.0937 49.4063V43.8285H29.4842C34.3173 43.8285 38.2494 39.8964 38.2494 35.0633V32.6728C38.2494 31.7927 37.5359 31.0792 36.6557 31.0792H32.6716C30.5545 31.0792 28.6103 31.8337 27.0937 33.0879V28.5885C33.3649 27.8119 38.2494 22.4657 38.2494 15.9393ZM35.0621 15.9393C35.0621 18.7756 33.8077 21.3372 31.8253 23.0935C31.8566 22.8378 31.8747 22.5781 31.8747 22.314C31.8747 18.2781 30.3659 14.5886 27.8838 11.7778C29.9881 10.3419 32.4831 9.56468 35.0621 9.56468V15.9393ZM31.8747 3.19002V6.69887C31.5802 6.75883 31.2878 6.82726 30.9977 6.90366C29.9638 5.74636 28.7847 4.76037 27.4973 3.96364C28.8889 3.45486 30.3661 3.19002 31.8747 3.19002ZM19.1254 4.78368C22.2915 4.78368 25.3662 5.93979 27.7574 8.14871C26.9682 8.55599 26.2115 9.0308 25.4954 9.56916C23.6424 8.1761 21.4773 7.17707 19.1254 6.69777V4.78368ZM15.9381 15.9393V9.56468C22.968 9.56468 28.6874 15.2839 28.6874 22.314C28.6874 24.0949 27.2167 25.5461 25.4163 25.4998C19.8175 25.3616 15.9381 20.9135 15.9381 15.9393ZM32.6716 34.2665H35.0621V35.0633C35.0621 38.1389 32.5599 40.6412 29.4842 40.6412H27.0937V39.8443C27.0937 36.7688 29.596 34.2665 32.6716 34.2665Z" fill="white"/>
</g>
</g>
<defs>
<clipPath id="clip0_12_354">
<rect width="51" height="51" fill="white"/>
</clipPath>
</defs>
</svg>
